<svg width="326" height="65" viewBox="0 0 326 65" fill="none" xmlns="http://www.w3.org/2000/svg">
<path d="M89.4312 36.8802H95.0315C94.9395 38.602 94.4669 40.1229 93.6142 41.443C92.773 42.7515 91.6035 43.7788 90.1051 44.525C88.6073 45.2596 86.8267 45.6269 84.7642 45.6269C83.1163 45.6269 81.6414 45.3457 80.3391 44.7832C79.0369 44.2208 77.9306 43.4173 77.0204 42.3727C76.1217 41.3167 75.43 40.0483 74.9459 38.5676C74.4738 37.0754 74.2375 35.3938 74.2375 33.5227V31.9904C74.2375 30.1194 74.4853 28.4378 74.9809 26.9455C75.4761 25.4533 76.1849 24.1792 77.1067 23.1232C78.0288 22.0671 79.1351 21.2579 80.4254 20.6955C81.7162 20.133 83.1565 19.8518 84.7469 19.8518C86.8904 19.8518 88.6993 20.2363 90.1742 21.0054C91.6495 21.7744 92.7902 22.8305 93.5969 24.1735C94.4151 25.5164 94.905 27.0488 95.066 28.7706H89.4485C89.4025 27.7949 89.2179 26.9742 88.8953 26.3085C88.5728 25.6312 88.0772 25.1204 87.4085 24.7761C86.7404 24.4317 85.8531 24.2595 84.7469 24.2595C83.9402 24.2595 83.2313 24.4087 82.6207 24.7072C82.0215 25.0056 81.5202 25.4705 81.1171 26.1019C80.725 26.7332 80.4312 27.5367 80.2356 28.5123C80.0396 29.4765 79.9418 30.6244 79.9418 31.9559V33.5227C79.9418 34.8428 80.0281 35.9849 80.2006 36.9491C80.3737 37.9133 80.6502 38.7111 81.0303 39.3424C81.4224 39.9737 81.9237 40.4443 82.5344 40.7543C83.145 41.0642 83.8884 41.2191 84.7642 41.2191C85.7669 41.2191 86.6023 41.0642 87.2705 40.7543C87.9387 40.4329 88.4515 39.9507 88.8091 39.308C89.1662 38.6652 89.3737 37.8559 89.4312 36.8802ZM100.646 36.1571V35.7955C100.646 34.4296 100.842 33.1726 101.234 32.0248C101.625 30.8655 102.201 29.8611 102.962 29.0117C103.723 28.1623 104.656 27.5023 105.762 27.0316C106.868 26.5495 108.136 26.3085 109.565 26.3085C111.017 26.3085 112.296 26.5495 113.402 27.0316C114.52 27.5023 115.459 28.1623 116.22 29.0117C116.98 29.8611 117.557 30.8655 117.948 32.0248C118.34 33.1726 118.536 34.4296 118.536 35.7955V36.1571C118.536 37.5116 118.34 38.7685 117.948 39.9278C117.557 41.0756 116.98 42.08 116.22 42.9409C115.459 43.7904 114.526 44.4504 113.42 44.921C112.313 45.3916 111.04 45.6269 109.6 45.6269C108.171 45.6269 106.897 45.3916 105.779 44.921C104.662 44.4504 103.723 43.7904 102.962 42.9409C102.201 42.08 101.625 41.0756 101.234 39.9278C100.842 38.7685 100.646 37.5116 100.646 36.1571ZM106.056 35.7955V36.1571C106.056 36.8917 106.114 37.5804 106.229 38.2232C106.356 38.866 106.557 39.4285 106.834 39.9106C107.11 40.3927 107.473 40.7715 107.923 41.047C108.384 41.311 108.943 41.443 109.6 41.443C110.256 41.443 110.809 41.311 111.259 41.047C111.709 40.7715 112.071 40.3927 112.348 39.9106C112.624 39.4285 112.821 38.866 112.936 38.2232C113.062 37.5804 113.126 36.8917 113.126 36.1571V35.7955C113.126 35.0723 113.062 34.3951 112.936 33.7638C112.821 33.121 112.624 32.5528 112.348 32.0592C112.071 31.5657 111.703 31.1811 111.242 30.9056C110.792 30.6301 110.233 30.4924 109.565 30.4924C108.919 30.4924 108.372 30.6301 107.923 30.9056C107.473 31.1811 107.11 31.5657 106.834 32.0592C106.557 32.5528 106.356 33.121 106.229 33.7638C106.114 34.3951 106.056 35.0723 106.056 35.7955ZM135.8 41.1158V18.8359H141.228V45.2826H136.354L135.8 41.1158ZM124.15 36.1915V35.83C124.15 34.4181 124.306 33.1325 124.617 31.9732C124.94 30.8023 125.406 29.798 126.017 28.96C126.639 28.1106 127.406 27.4563 128.316 26.9972C129.226 26.5381 130.269 26.3085 131.445 26.3085C132.528 26.3085 133.472 26.5495 134.279 27.0316C135.086 27.5023 135.772 28.168 136.336 29.0289C136.912 29.8783 137.379 30.8827 137.736 32.042C138.094 33.1899 138.364 34.4353 138.549 35.7783V36.3982C138.376 37.6837 138.105 38.8833 137.736 39.9967C137.379 41.1101 136.912 42.0915 136.336 42.9409C135.772 43.7788 135.08 44.4389 134.262 44.921C133.455 45.3916 132.505 45.6269 131.41 45.6269C130.235 45.6269 129.192 45.3916 128.282 44.921C127.382 44.4504 126.628 43.7904 126.017 42.9409C125.406 42.0915 124.94 41.0929 124.617 39.945C124.306 38.7972 124.15 37.546 124.15 36.1915ZM129.543 35.83V36.1915C129.543 36.9262 129.595 37.6091 129.699 38.2404C129.814 38.8718 129.998 39.4285 130.252 39.9106C130.506 40.3927 130.84 40.7715 131.254 41.047C131.669 41.311 132.176 41.443 132.776 41.443C133.582 41.443 134.245 41.2593 134.763 40.892C135.282 40.5132 135.674 39.9909 135.939 39.3252C136.204 38.6594 136.342 37.8846 136.354 37.0007V35.1929C136.354 34.4583 136.279 33.7982 136.129 33.2128C135.979 32.6274 135.754 32.1339 135.455 31.7321C135.167 31.3304 134.804 31.0261 134.366 30.8195C133.928 30.6014 133.409 30.4924 132.81 30.4924C132.222 30.4924 131.721 30.6301 131.306 30.9056C130.891 31.1697 130.552 31.5427 130.286 32.0248C130.033 32.5069 129.843 33.0751 129.716 33.7294C129.601 34.3722 129.543 35.0723 129.543 35.83ZM159.253 41.1158V18.8359H164.681V45.2826H159.806L159.253 41.1158ZM147.603 36.1915V35.83C147.603 34.4181 147.758 33.1325 148.069 31.9732C148.392 30.8023 148.859 29.798 149.469 28.96C150.092 28.1106 150.858 27.4563 151.769 26.9972C152.679 26.5381 153.722 26.3085 154.897 26.3085C155.98 26.3085 156.925 26.5495 157.732 27.0316C158.538 27.5023 159.224 28.168 159.789 29.0289C160.365 29.8783 160.832 30.8827 161.189 32.042C161.546 33.1899 161.817 34.4353 162.001 35.7783V36.3982C161.828 37.6837 161.558 38.8833 161.189 39.9967C160.832 41.1101 160.365 42.0915 159.789 42.9409C159.224 43.7788 158.533 44.4389 157.714 44.921C156.908 45.3916 155.957 45.6269 154.863 45.6269C153.687 45.6269 152.644 45.3916 151.734 44.921C150.835 44.4504 150.08 43.7904 149.469 42.9409C148.859 42.0915 148.392 41.0929 148.069 39.945C147.758 38.7972 147.603 37.546 147.603 36.1915ZM152.996 35.83V36.1915C152.996 36.9262 153.047 37.6091 153.151 38.2404C153.266 38.8718 153.451 39.4285 153.705 39.9106C153.958 40.3927 154.292 40.7715 154.707 41.047C155.122 41.311 155.629 41.443 156.228 41.443C157.035 41.443 157.697 41.2593 158.216 40.892C158.734 40.5132 159.126 39.9909 159.391 39.3252C159.656 38.6594 159.795 37.8846 159.806 37.0007V35.1929C159.806 34.4583 159.731 33.7982 159.581 33.2128C159.432 32.6274 159.207 32.1339 158.907 31.7321C158.619 31.3304 158.256 31.0261 157.818 30.8195C157.38 30.6014 156.862 30.4924 156.263 30.4924C155.675 30.4924 155.174 30.6301 154.759 30.9056C154.344 31.1697 154.004 31.5427 153.739 32.0248C153.486 32.5069 153.295 33.0751 153.169 33.7294C153.053 34.3722 152.996 35.0723 152.996 35.83ZM177.451 43.1303L182.343 26.6528H188.151L180.631 48.0718C180.47 48.5426 180.251 49.0477 179.975 49.5872C179.709 50.1267 179.347 50.6429 178.886 51.1365C178.436 51.6302 177.86 52.0317 177.157 52.3421C176.454 52.6519 175.59 52.8066 174.564 52.8066C174.046 52.8066 173.642 52.778 173.354 52.7207C173.078 52.6748 172.709 52.5946 172.248 52.4796L172.231 48.5712C172.381 48.5712 172.513 48.5712 172.628 48.5712C172.755 48.5827 172.882 48.5884 173.009 48.5884C173.654 48.5884 174.172 48.5196 174.564 48.3817C174.968 48.2441 175.279 48.0374 175.498 47.7619C175.728 47.4979 175.912 47.1594 176.051 46.7459L177.451 43.1303ZM175.809 26.6528L179.681 39.9106L180.337 45.6097L176.69 45.7991L170.001 26.6528H175.809ZM215.748 40.1C215.748 39.7556 215.638 39.4514 215.42 39.1874C215.212 38.9234 214.832 38.6824 214.279 38.4643C213.737 38.2462 212.971 38.0281 211.98 37.81C211.047 37.6149 210.177 37.3623 209.37 37.0524C208.563 36.731 207.86 36.3465 207.261 35.8988C206.662 35.4397 206.195 34.9002 205.861 34.2804C205.527 33.649 205.359 32.9316 205.359 32.1281C205.359 31.3476 205.527 30.6072 205.861 29.907C206.206 29.2068 206.702 28.587 207.347 28.0475C208.004 27.508 208.8 27.0833 209.733 26.7733C210.677 26.4634 211.749 26.3085 212.948 26.3085C214.596 26.3085 216.019 26.5667 217.217 27.0833C218.416 27.5883 219.338 28.3 219.983 29.2183C220.628 30.1251 220.951 31.1639 220.951 32.3347H215.558C215.558 31.8526 215.466 31.4336 215.281 31.0778C215.097 30.722 214.814 30.4465 214.434 30.2513C214.054 30.0447 213.553 29.9414 212.931 29.9414C212.447 29.9414 212.02 30.0275 211.651 30.1997C211.294 30.3604 211.012 30.5842 210.804 30.8712C210.608 31.1582 210.511 31.491 210.511 31.8698C210.511 32.1339 210.568 32.3749 210.683 32.593C210.81 32.7996 211.001 32.9947 211.254 33.1784C211.519 33.3506 211.859 33.5055 212.274 33.6433C212.7 33.781 213.219 33.913 213.829 34.0393C215.132 34.2804 216.318 34.619 217.39 35.0552C218.473 35.4913 219.338 36.0939 219.983 36.863C220.64 37.6321 220.968 38.6479 220.968 39.9106C220.968 40.737 220.778 41.4946 220.398 42.1834C220.029 42.872 219.493 43.4747 218.79 43.9912C218.087 44.5078 217.246 44.9095 216.267 45.1965C215.287 45.4834 214.181 45.6269 212.948 45.6269C211.185 45.6269 209.692 45.3113 208.471 44.6799C207.249 44.0486 206.328 43.2566 205.705 42.3039C205.094 41.3397 204.789 40.3525 204.789 39.3424H209.854C209.877 39.9622 210.032 40.4673 210.32 40.8575C210.62 41.2479 211.006 41.5348 211.478 41.7185C211.951 41.8906 212.481 41.9767 213.069 41.9767C213.656 41.9767 214.146 41.8964 214.538 41.7357C214.93 41.575 215.229 41.3569 215.437 41.0814C215.644 40.7944 215.748 40.4673 215.748 40.1ZM235.329 41.443C235.905 41.443 236.406 41.3339 236.832 41.1158C237.259 40.8977 237.587 40.5936 237.818 40.2033C238.06 39.8015 238.181 39.3195 238.181 38.757H243.262C243.262 40.1114 242.911 41.3052 242.208 42.3383C241.517 43.3714 240.584 44.1806 239.408 44.766C238.232 45.3399 236.907 45.6269 235.432 45.6269C233.98 45.6269 232.713 45.3916 231.629 44.921C230.546 44.4389 229.642 43.7674 228.916 42.9065C228.19 42.0456 227.643 41.047 227.274 39.9106C226.916 38.7627 226.738 37.523 226.738 36.1915V35.7439C226.738 34.4238 226.916 33.1899 227.274 32.042C227.643 30.8942 228.19 29.8898 228.916 29.0289C229.642 28.168 230.54 27.5023 231.612 27.0316C232.695 26.5495 233.963 26.3085 235.415 26.3085C236.948 26.3085 238.302 26.6012 239.477 27.1866C240.664 27.772 241.592 28.6157 242.26 29.7176C242.928 30.8081 243.262 32.1224 243.262 33.6605H238.181C238.181 33.0636 238.071 32.5299 237.852 32.0592C237.645 31.5771 237.322 31.1983 236.884 30.9229C236.458 30.6359 235.928 30.4924 235.294 30.4924C234.637 30.4924 234.096 30.6359 233.669 30.9229C233.254 31.1983 232.938 31.5829 232.718 32.0765C232.5 32.5701 232.35 33.1325 232.269 33.7638C232.188 34.3836 232.148 35.0436 232.148 35.7439V36.1915C232.148 36.9032 232.188 37.5804 232.269 38.2232C232.35 38.8546 232.5 39.4113 232.718 39.8933C232.949 40.3755 233.272 40.7543 233.687 41.0298C234.101 41.3052 234.649 41.443 235.329 41.443ZM254.754 18.8359V45.2826H249.361V18.8359H254.754ZM254.045 35.3134L252.697 35.3478C252.697 34.0393 252.858 32.8398 253.181 31.7493C253.515 30.6474 253.987 29.6889 254.598 28.8739C255.209 28.059 255.941 27.4276 256.794 26.98C257.658 26.5323 258.608 26.3085 259.646 26.3085C260.567 26.3085 261.408 26.4405 262.169 26.7045C262.93 26.9685 263.586 27.3874 264.14 27.9614C264.693 28.5353 265.119 29.2871 265.419 30.2169C265.718 31.1467 265.868 32.2773 265.868 33.6088V45.2826H260.441V33.5744C260.441 32.7824 260.325 32.1626 260.095 31.7149C259.876 31.2672 259.554 30.9516 259.127 30.7679C258.712 30.5842 258.205 30.4924 257.606 30.4924C256.903 30.4924 256.321 30.6187 255.86 30.8712C255.399 31.1123 255.036 31.4509 254.771 31.8871C254.506 32.3233 254.316 32.834 254.201 33.4194C254.097 34.0049 254.045 34.6362 254.045 35.3134ZM272.156 36.1571V35.7955C272.156 34.4296 272.352 33.1726 272.744 32.0248C273.136 30.8655 273.712 29.8611 274.473 29.0117C275.233 28.1623 276.167 27.5023 277.273 27.0316C278.379 26.5495 279.647 26.3085 281.076 26.3085C282.528 26.3085 283.807 26.5495 284.913 27.0316C286.031 27.5023 286.97 28.1623 287.731 29.0117C288.491 29.8611 289.067 30.8655 289.459 32.0248C289.851 33.1726 290.047 34.4296 290.047 35.7955V36.1571C290.047 37.5116 289.851 38.7685 289.459 39.9278C289.067 41.0756 288.491 42.08 287.731 42.9409C286.97 43.7904 286.037 44.4504 284.931 44.921C283.824 45.3916 282.551 45.6269 281.11 45.6269C279.682 45.6269 278.408 45.3916 277.29 44.921C276.173 44.4504 275.233 43.7904 274.473 42.9409C273.712 42.08 273.136 41.0756 272.744 39.9278C272.352 38.7685 272.156 37.5116 272.156 36.1571ZM277.567 35.7955V36.1571C277.567 36.8917 277.624 37.5804 277.74 38.2232C277.866 38.866 278.068 39.4285 278.345 39.9106C278.621 40.3927 278.984 40.7715 279.434 41.047C279.894 41.311 280.453 41.443 281.11 41.443C281.767 41.443 282.32 41.311 282.77 41.047C283.219 40.7715 283.582 40.3927 283.859 39.9106C284.135 39.4285 284.331 38.866 284.446 38.2232C284.573 37.5804 284.636 36.8917 284.636 36.1571V35.7955C284.636 35.0723 284.573 34.3951 284.446 33.7638C284.331 33.121 284.135 32.5528 283.859 32.0592C283.582 31.5657 283.213 31.1811 282.753 30.9056C282.303 30.6301 281.744 30.4924 281.076 30.4924C280.43 30.4924 279.883 30.6301 279.434 30.9056C278.984 31.1811 278.621 31.5657 278.345 32.0592C278.068 32.5528 277.866 33.121 277.74 33.7638C277.624 34.3951 277.567 35.0723 277.567 35.7955ZM295.644 36.1571V35.7955C295.644 34.4296 295.84 33.1726 296.232 32.0248C296.623 30.8655 297.199 29.8611 297.96 29.0117C298.721 28.1623 299.654 27.5023 300.76 27.0316C301.866 26.5495 303.134 26.3085 304.563 26.3085C306.015 26.3085 307.294 26.5495 308.4 27.0316C309.518 27.5023 310.457 28.1623 311.218 29.0117C311.978 29.8611 312.555 30.8655 312.946 32.0248C313.338 33.1726 313.534 34.4296 313.534 35.7955V36.1571C313.534 37.5116 313.338 38.7685 312.946 39.9278C312.555 41.0756 311.978 42.08 311.218 42.9409C310.457 43.7904 309.524 44.4504 308.418 44.921C307.311 45.3916 306.038 45.6269 304.598 45.6269C303.169 45.6269 301.895 45.3916 300.777 44.921C299.66 44.4504 298.721 43.7904 297.96 42.9409C297.199 42.08 296.623 41.0756 296.232 39.9278C295.84 38.7685 295.644 37.5116 295.644 36.1571ZM301.054 35.7955V36.1571C301.054 36.8917 301.111 37.5804 301.227 38.2232C301.354 38.866 301.555 39.4285 301.832 39.9106C302.108 40.3927 302.471 40.7715 302.921 41.047C303.382 41.311 303.94 41.443 304.598 41.443C305.254 41.443 305.807 41.311 306.257 41.047C306.706 40.7715 307.069 40.3927 307.346 39.9106C307.622 39.4285 307.818 38.866 307.934 38.2232C308.06 37.5804 308.124 36.8917 308.124 36.1571V35.7955C308.124 35.0723 308.06 34.3951 307.934 33.7638C307.818 33.121 307.622 32.5528 307.346 32.0592C307.069 31.5657 306.7 31.1811 306.24 30.9056C305.79 30.6301 305.231 30.4924 304.563 30.4924C303.917 30.4924 303.37 30.6301 302.921 30.9056C302.471 31.1811 302.108 31.5657 301.832 32.0592C301.555 32.5528 301.354 33.121 301.227 33.7638C301.111 34.3951 301.054 35.0723 301.054 35.7955ZM325.596 18.8359V45.2826H320.185V18.8359H325.596Z" fill="#3D3BFF"/>
<path d="M54.7466 3.40869H10.4965C6.58631 3.40869 3.41647 6.56618 3.41647 10.4611V54.5389C3.41647 58.4338 6.58631 61.5913 10.4965 61.5913H54.7466C58.6568 61.5913 61.8267 58.4338 61.8267 54.5389V10.4611C61.8267 6.56618 58.6568 3.40869 54.7466 3.40869Z" fill="white" stroke="#3D3BFF" stroke-width="4"/>
<path d="M50.7641 7.37567H14.479C10.5688 7.37567 7.39899 10.5332 7.39899 14.4281V50.5719C7.39899 54.4668 10.5688 57.6243 14.479 57.6243H50.7641C54.6743 57.6243 57.8441 54.4668 57.8441 50.5719V14.4281C57.8441 10.5332 54.6743 7.37567 50.7641 7.37567Z" fill="#3D3BFF"/>
<path d="M21.1667 26.3877C21.7371 26.3877 22.2643 26.2714 22.7483 26.039C23.2322 25.8066 23.6298 25.488 23.9409 25.0834C24.2521 24.6702 24.4292 24.201 24.4725 23.6759H26.7541C26.7109 24.5023 26.43 25.2728 25.9114 25.9873C25.4015 26.6933 24.7317 27.2658 23.902 27.7048C23.0723 28.1353 22.1606 28.3505 21.1667 28.3505C20.1123 28.3505 19.1918 28.1654 18.4053 27.7952C17.6275 27.425 16.9793 26.9171 16.4608 26.2714C15.9509 25.6258 15.5662 24.8854 15.307 24.0503C15.0563 23.2066 14.931 22.3156 14.931 21.3772V20.8349C14.931 19.8965 15.0563 19.0098 15.307 18.1747C15.5662 17.331 15.9509 16.5864 16.4608 15.9407C16.9793 15.295 17.6275 14.7871 18.4053 14.4169C19.1918 14.0468 20.1123 13.8616 21.1667 13.8616C22.2643 13.8616 23.2236 14.0855 24.0447 14.5332C24.8657 14.9722 25.5096 15.5748 25.9763 16.341C26.4516 17.0986 26.7109 17.9595 26.7541 18.9237H24.4725C24.4292 18.3469 24.265 17.8261 23.9798 17.3612C23.7033 16.8963 23.323 16.5261 22.839 16.2506C22.3637 15.9665 21.8062 15.8245 21.1667 15.8245C20.432 15.8245 19.8141 15.9708 19.3128 16.2636C18.8202 16.5476 18.427 16.935 18.1331 17.4258C17.8479 17.9078 17.6405 18.4459 17.5109 19.0399C17.3898 19.6253 17.3293 20.2236 17.3293 20.8349V21.3772C17.3293 21.9885 17.3898 22.5911 17.5109 23.1851C17.6318 23.7791 17.8349 24.3172 18.1201 24.7993C18.414 25.2814 18.8072 25.6688 19.2998 25.9615C19.8011 26.2456 20.4234 26.3877 21.1667 26.3877Z" fill="white"/>
</svg>
