<svg width="51" height="51" viewBox="0 0 51 51" fill="none" xmlns="http://www.w3.org/2000/svg">
<path d="M9.0525 9.0525C6.375 11.7555 6.375 16.0778 6.375 24.735V26.265C6.375 34.9095 6.375 39.2318 9.0525 41.9475C11.7555 44.625 16.0778 44.625 24.735 44.625H26.265C34.9095 44.625 39.2318 44.625 41.9475 41.9475C44.625 39.2445 44.625 34.9222 44.625 26.265V24.735C44.625 16.0905 44.625 11.7683 41.9475 9.0525C39.2445 6.375 34.9222 6.375 26.265 6.375H24.735C16.0905 6.375 11.7683 6.375 9.0525 9.0525ZM12.8265 18.0157H17.2125C17.3528 25.3087 20.5658 28.3942 23.1158 29.0317V18.0157H27.234V24.3015C29.7458 24.0338 32.3978 21.165 33.2903 18.003H37.3957C37.0611 19.6398 36.3925 21.1901 35.4316 22.5568C34.4707 23.9235 33.2383 25.0774 31.8113 25.9463C33.4038 26.7386 34.8102 27.8597 35.9377 29.2355C37.0651 30.6113 37.888 32.2106 38.352 33.9277H33.8258C32.8568 30.906 30.4342 28.56 27.234 28.2412V33.9277H26.724C18.003 33.9277 13.0305 27.9607 12.8265 18.0157Z" fill="#2773FF"/>
</svg>
